<svg xmlns="http://www.w3.org/2000/svg" viewBox="0 0 600 400" fill="none">
  <rect width="600" height="400" fill="#323236"/>

  <!-- Section label -->
  <rect x="120" y="64" width="104" height="7" rx="3" fill="#F5F5F0" opacity="0.3"/>

  <!-- Three supplier types, descending emphasis -->
  <rect x="120" y="96" width="112" height="240" rx="12" fill="#3F3F46"/>
  <rect x="140" y="120" width="56" height="8" rx="4" fill="#F5F5F0" opacity="0.75"/>
  <rect x="140" y="142" width="72" height="5" rx="2" fill="#F5F5F0" opacity="0.24"/>
  <rect x="140" y="156" width="60" height="5" rx="2" fill="#F5F5F0" opacity="0.24"/>
  <rect x="140" y="184" width="72" height="28" rx="6" fill="#F5F5F0" opacity="0.16"/>
  <rect x="152" y="195" width="48" height="6" rx="3" fill="#F5F5F0" opacity="0.5"/>
  <rect x="140" y="236" width="52" height="5" rx="2" fill="#F5F5F0" opacity="0.16"/>
  <rect x="140" y="250" width="66" height="5" rx="2" fill="#F5F5F0" opacity="0.16"/>
  <rect x="140" y="264" width="44" height="5" rx="2" fill="#F5F5F0" opacity="0.16"/>
  <rect x="140" y="300" width="60" height="10" rx="5" fill="#F5F5F0" opacity="0.42"/>

  <rect x="244" y="96" width="112" height="240" rx="12" fill="#3F3F46" opacity="0.72"/>
  <rect x="264" y="120" width="48" height="8" rx="4" fill="#F5F5F0" opacity="0.5"/>
  <rect x="264" y="142" width="68" height="5" rx="2" fill="#F5F5F0" opacity="0.16"/>
  <rect x="264" y="156" width="54" height="5" rx="2" fill="#F5F5F0" opacity="0.16"/>
  <rect x="264" y="184" width="72" height="28" rx="6" fill="#F5F5F0" opacity="0.1"/>
  <rect x="276" y="195" width="40" height="6" rx="3" fill="#F5F5F0" opacity="0.32"/>
  <rect x="264" y="236" width="60" height="5" rx="2" fill="#F5F5F0" opacity="0.11"/>
  <rect x="264" y="250" width="46" height="5" rx="2" fill="#F5F5F0" opacity="0.11"/>
  <rect x="264" y="264" width="58" height="5" rx="2" fill="#F5F5F0" opacity="0.11"/>
  <rect x="264" y="300" width="48" height="10" rx="5" fill="#F5F5F0" opacity="0.26"/>

  <rect x="368" y="96" width="112" height="240" rx="12" fill="#3F3F46" opacity="0.48"/>
  <rect x="388" y="120" width="54" height="8" rx="4" fill="#F5F5F0" opacity="0.32"/>
  <rect x="388" y="142" width="60" height="5" rx="2" fill="#F5F5F0" opacity="0.1"/>
  <rect x="388" y="156" width="48" height="5" rx="2" fill="#F5F5F0" opacity="0.1"/>
  <rect x="388" y="184" width="72" height="28" rx="6" fill="#F5F5F0" opacity="0.06"/>
  <rect x="400" y="195" width="34" height="6" rx="3" fill="#F5F5F0" opacity="0.2"/>
  <rect x="388" y="236" width="52" height="5" rx="2" fill="#F5F5F0" opacity="0.07"/>
  <rect x="388" y="250" width="62" height="5" rx="2" fill="#F5F5F0" opacity="0.07"/>
  <rect x="388" y="264" width="40" height="5" rx="2" fill="#F5F5F0" opacity="0.07"/>
  <rect x="388" y="300" width="40" height="10" rx="5" fill="#F5F5F0" opacity="0.15"/>
</svg>
