<svg xmlns="http://www.w3.org/2000/svg" viewBox="0 0 600 400" fill="none">
  <rect width="600" height="400" fill="#323236"/>

  <!-- Quote card: highlighted -->
  <rect x="120" y="72" width="360" height="88" rx="12" fill="#3F3F46"/>
  <rect x="144" y="96" width="90" height="7" rx="3" fill="#F5F5F0" opacity="0.35"/>
  <rect x="144" y="116" width="150" height="14" rx="4" fill="#F5F5F0" opacity="0.85"/>
  <rect x="144" y="140" width="120" height="5" rx="2" fill="#F5F5F0" opacity="0.18"/>
  <!-- Coin stack -->
  <ellipse cx="436" cy="100" rx="22" ry="8" fill="#F5F5F0" opacity="0.8"/>
  <ellipse cx="436" cy="116" rx="22" ry="8" fill="#F5F5F0" opacity="0.5"/>
  <ellipse cx="436" cy="132" rx="22" ry="8" fill="#F5F5F0" opacity="0.28"/>

  <!-- Comparison bars -->
  <rect x="120" y="192" width="360" height="44" rx="10" fill="#3F3F46" opacity="0.8"/>
  <rect x="144" y="208" width="80" height="6" rx="3" fill="#F5F5F0" opacity="0.4"/>
  <rect x="144" y="222" width="130" height="5" rx="2" fill="#F5F5F0" opacity="0.14"/>
  <rect x="380" y="206" width="76" height="10" rx="5" fill="#F5F5F0" opacity="0.5"/>

  <rect x="120" y="248" width="360" height="44" rx="10" fill="#3F3F46" opacity="0.62"/>
  <rect x="144" y="264" width="64" height="6" rx="3" fill="#F5F5F0" opacity="0.3"/>
  <rect x="144" y="278" width="110" height="5" rx="2" fill="#F5F5F0" opacity="0.11"/>
  <rect x="404" y="262" width="52" height="10" rx="5" fill="#F5F5F0" opacity="0.34"/>

  <rect x="120" y="304" width="360" height="44" rx="10" fill="#3F3F46" opacity="0.45"/>
  <rect x="144" y="320" width="72" height="6" rx="3" fill="#F5F5F0" opacity="0.22"/>
  <rect x="144" y="334" width="96" height="5" rx="2" fill="#F5F5F0" opacity="0.09"/>
  <rect x="424" y="318" width="32" height="10" rx="5" fill="#F5F5F0" opacity="0.22"/>
</svg>
